<svg width="45" height="48" viewBox="0 0 45 48" fill="currentColor" stroke="currentColor" xmlns="http://www.w3.org/2000/svg">
<g clip-path="url(#clip0_2_3)">
<path d="M10.582 4.95703C9.83203 4.95703 9.07031 5.02734 8.29688 5.16797C7.54688 5.30859 6.79688 5.47266 6.04688 5.66016C5.29688 5.82422 4.54688 5.97656 3.79688 6.11719C3.04688 6.25781 2.28516 6.32812 1.51172 6.32812C1.27734 6.32812 1.03125 6.30469 0.773438 6.25781C0.539062 6.1875 0.421875 5.97656 0.421875 5.625C0.421875 5.39062 0.515625 5.15625 0.703125 4.92188C0.914062 4.66406 1.13672 4.52344 1.37109 4.5L10.793 3.12891C10.8164 3.03516 10.8516 2.89453 10.8984 2.70703C10.9453 2.49609 11.0039 2.29688 11.0742 2.10938C11.168 1.89844 11.2852 1.72266 11.4258 1.58203C11.5664 1.41797 11.7305 1.33594 11.918 1.33594C12.1992 1.33594 12.4219 1.40625 12.5859 1.54688C12.75 1.6875 12.8906 1.85156 13.0078 2.03906C13.125 2.20312 13.2305 2.35547 13.3242 2.49609C13.418 2.63672 13.5352 2.70703 13.6758 2.70703H13.957C14.1914 2.68359 14.5664 2.64844 15.082 2.60156C15.5977 2.53125 16.1836 2.46094 16.8398 2.39062C17.5195 2.32031 18.2344 2.25 18.9844 2.17969C19.7344 2.08594 20.4492 2.01562 21.1289 1.96875C21.8086 1.89844 22.4062 1.83984 22.9219 1.79297C23.4375 1.72266 23.8125 1.66406 24.0469 1.61719C24.1172 1.61719 24.2812 1.61719 24.5391 1.61719C24.8203 1.59375 25.0195 1.58203 25.1367 1.58203C25.1367 2.02734 24.8906 2.40234 24.3984 2.70703C23.9297 2.98828 23.3203 3.23438 22.5703 3.44531C21.8438 3.63281 21.0234 3.78516 20.1094 3.90234C19.2188 3.99609 18.3398 4.07812 17.4727 4.14844C16.6289 4.21875 15.8438 4.27734 15.1172 4.32422C14.4141 4.37109 13.875 4.42969 13.5 4.5C13.4062 6.16406 13.4414 7.89844 13.6055 9.70312C13.793 11.5078 14.0156 13.3242 14.2734 15.1523C14.5547 16.9805 14.8125 18.7969 15.0469 20.6016C15.2812 22.4062 15.3984 24.1289 15.3984 25.7695C15.4922 26.0977 15.5273 26.3555 15.5039 26.543C15.5039 26.7305 15.4453 26.8594 15.3281 26.9297C15.2109 27 15.0352 27.0352 14.8008 27.0352C14.5664 27.0352 14.2852 27.0234 13.957 27C13.7227 26.1562 13.5117 25.1719 13.3242 24.0469C13.1602 22.8984 13.0078 21.6797 12.8672 20.3906C12.7266 19.0781 12.5859 17.7305 12.4453 16.3477C12.3281 14.9648 12.2109 13.5938 12.0938 12.2344C11.9766 10.875 11.8477 9.57422 11.707 8.33203C11.5664 7.08984 11.4023 5.96484 11.2148 4.95703H10.582Z" fill="black"/>
<path d="M16.0547 10.7969C16.0547 10.5625 16.125 10.3984 16.2656 10.3047C16.4062 10.1875 16.582 10.1055 16.793 10.0586C17.0039 10.0117 17.2266 9.98828 17.4609 9.98828C17.6953 9.98828 17.8945 9.97656 18.0586 9.95312V13.293C19.6055 12.8477 20.8711 12.4023 21.8555 11.957C22.8398 11.4883 23.7188 11.0664 24.4922 10.6914C25.2656 10.293 26.0273 9.94141 26.7773 9.63672C27.5508 9.30859 28.4766 9.02734 29.5547 8.79297C29.7188 8.79297 29.8359 8.875 29.9062 9.03906C29.9766 9.20312 30.0117 9.35547 30.0117 9.49609C30.0117 9.75391 29.8594 9.96484 29.5547 10.1289L18.2695 15.543L18.7266 25.457C20.4609 24.4961 21.9258 23.6758 23.1211 22.9961C24.3164 22.3164 25.3008 21.7539 26.0742 21.3086C26.8477 20.8633 27.4453 20.5234 27.8672 20.2891C28.3125 20.0547 28.6406 19.8906 28.8516 19.7969L29.2383 19.6211C29.2852 19.5977 29.3203 19.5859 29.3438 19.5859C29.3906 19.5859 29.4258 19.6328 29.4492 19.7266C29.4727 19.7969 29.4844 19.8906 29.4844 20.0078V20.4297C29.4844 20.5469 29.5078 20.6523 29.5547 20.7461C29.4375 20.8867 29.0859 21.1445 28.5 21.5195C27.9375 21.8945 27.2578 22.3281 26.4609 22.8203C25.6641 23.2891 24.8086 23.793 23.8945 24.332C23.0039 24.8477 22.1719 25.3398 21.3984 25.8086C20.625 26.2773 19.9805 26.6875 19.4648 27.0391C18.9727 27.3672 18.7266 27.5898 18.7266 27.707V33.0859C18.7266 33.3906 18.668 33.625 18.5508 33.7891C18.457 33.9531 18.293 34.0352 18.0586 34.0352C17.8008 34.0352 17.5664 33.7422 17.3555 33.1562C17.168 32.5703 17.0039 31.7969 16.8633 30.8359C16.7461 29.8516 16.6406 28.7266 16.5469 27.4609C16.4531 26.1953 16.3711 24.8828 16.3008 23.5234C16.2305 22.1641 16.1719 20.8047 16.125 19.4453C16.1016 18.0859 16.0781 16.832 16.0547 15.6836C16.0547 14.5117 16.0547 13.5039 16.0547 12.6602V10.7969Z" fill="black"/>
<path d="M25.2539 46.3477C25.3008 46.1133 25.5938 45.8906 26.1328 45.6797C26.6719 45.4688 27.3398 45.2461 28.1367 45.0117C28.9336 44.7773 29.8125 44.5195 30.7734 44.2383C31.7344 43.957 32.6602 43.6406 33.5508 43.2891C34.4414 42.9375 35.25 42.5391 35.9766 42.0938C36.7266 41.6484 37.2773 41.1328 37.6289 40.5469C37.6289 40.1953 37.3945 39.9258 36.9258 39.7383C36.4805 39.5508 35.8711 39.3984 35.0977 39.2812C34.3477 39.1406 33.4805 39.0352 32.4961 38.9648C31.5352 38.8711 30.5391 38.7539 29.5078 38.6133C28.5 38.4492 27.5039 38.2617 26.5195 38.0508C25.5586 37.8164 24.6914 37.5 23.918 37.1016C23.168 36.6797 22.5586 36.1523 22.0898 35.5195C21.6445 34.8867 21.4219 34.1133 21.4219 33.1992C21.4219 32.2852 21.6211 31.3828 22.0195 30.4922C22.418 29.5781 22.9453 28.6992 23.6016 27.8555C24.2812 27.0117 25.043 26.2266 25.8867 25.5C26.7539 24.7734 27.6562 24.1406 28.5938 23.6016C29.5312 23.0625 30.457 22.6406 31.3711 22.3359C32.3086 22.0312 33.1758 21.8789 33.9727 21.8789C34.1836 21.8789 34.4062 21.8789 34.6406 21.8789C34.875 21.8555 35.0742 21.8672 35.2383 21.9141C35.4258 21.9375 35.5781 22.0195 35.6953 22.1602C35.8125 22.3008 35.8711 22.5117 35.8711 22.793C35.8711 23.4727 35.6484 23.9648 35.2031 24.2695C34.7578 24.5508 34.2188 24.6914 33.5859 24.6914L32.2148 23.707C31.6758 23.707 31.0781 23.8594 30.4219 24.1641C29.7891 24.4688 29.1328 24.8789 28.4531 25.3945C27.7969 25.8867 27.1523 26.4609 26.5195 27.1172C25.8867 27.7734 25.3242 28.4531 24.832 29.1562C24.3633 29.8594 23.9766 30.5625 23.6719 31.2656C23.3906 31.9688 23.25 32.6016 23.25 33.1641C23.25 33.9844 23.4727 34.6523 23.918 35.168C24.3867 35.6602 24.9961 36.0586 25.7461 36.3633C26.5195 36.6445 27.3984 36.8555 28.3828 36.9961C29.3672 37.1367 30.3633 37.2539 31.3711 37.3477C32.3789 37.4414 33.375 37.5352 34.3594 37.6289C35.3438 37.6992 36.2109 37.8398 36.9609 38.0508C37.7344 38.2617 38.3438 38.543 38.7891 38.8945C39.2578 39.2461 39.4922 39.7266 39.4922 40.3359C39.75 40.7109 39.6914 41.1445 39.3164 41.6367C38.9648 42.1055 38.4023 42.5859 37.6289 43.0781C36.8789 43.5469 35.9766 44.0273 34.9219 44.5195C33.8906 44.9883 32.8242 45.4219 31.7227 45.8203C30.6211 46.1953 29.5547 46.5234 28.5234 46.8047C27.4922 47.0625 26.6133 47.2266 25.8867 47.2969C25.6758 47.2969 25.4883 47.2266 25.3242 47.0859C25.1836 46.9453 25.1602 46.6992 25.2539 46.3477Z" fill="black"/>
</g>
<defs>
<clipPath id="clip0_2_3">
<rect width="45" height="48" fill="white"/>
</clipPath>
</defs>
</svg>
