<svg width="242" height="30" viewBox="0 0 242 30" fill="none" xmlns="http://www.w3.org/2000/svg">
<path d="M10.582 6.95703C9.83203 6.95703 9.07031 7.02734 8.29688 7.16797C7.54688 7.30859 6.79688 7.47266 6.04688 7.66016C5.29688 7.82422 4.54688 7.97656 3.79688 8.11719C3.04688 8.25781 2.28516 8.32812 1.51172 8.32812C1.27734 8.32812 1.03125 8.30469 0.773438 8.25781C0.539062 8.1875 0.421875 7.97656 0.421875 7.625C0.421875 7.39062 0.515625 7.15625 0.703125 6.92188C0.914062 6.66406 1.13672 6.52344 1.37109 6.5L10.793 5.12891C10.8164 5.03516 10.8516 4.89453 10.8984 4.70703C10.9453 4.49609 11.0039 4.29688 11.0742 4.10938C11.168 3.89844 11.2852 3.72266 11.4258 3.58203C11.5664 3.41797 11.7305 3.33594 11.918 3.33594C12.1992 3.33594 12.4219 3.40625 12.5859 3.54688C12.75 3.6875 12.8906 3.85156 13.0078 4.03906C13.125 4.20312 13.2305 4.35547 13.3242 4.49609C13.418 4.63672 13.5352 4.70703 13.6758 4.70703H13.957C14.1914 4.68359 14.5664 4.64844 15.082 4.60156C15.5977 4.53125 16.1836 4.46094 16.8398 4.39062C17.5195 4.32031 18.2344 4.25 18.9844 4.17969C19.7344 4.08594 20.4492 4.01562 21.1289 3.96875C21.8086 3.89844 22.4062 3.83984 22.9219 3.79297C23.4375 3.72266 23.8125 3.66406 24.0469 3.61719C24.1172 3.61719 24.2812 3.61719 24.5391 3.61719C24.8203 3.59375 25.0195 3.58203 25.1367 3.58203C25.1367 4.02734 24.8906 4.40234 24.3984 4.70703C23.9297 4.98828 23.3203 5.23438 22.5703 5.44531C21.8438 5.63281 21.0234 5.78516 20.1094 5.90234C19.2188 5.99609 18.3398 6.07812 17.4727 6.14844C16.6289 6.21875 15.8438 6.27734 15.1172 6.32422C14.4141 6.37109 13.875 6.42969 13.5 6.5C13.4062 8.16406 13.4414 9.89844 13.6055 11.7031C13.793 13.5078 14.0156 15.3242 14.2734 17.1523C14.5547 18.9805 14.8125 20.7969 15.0469 22.6016C15.2812 24.4062 15.3984 26.1289 15.3984 27.7695C15.4922 28.0977 15.5273 28.3555 15.5039 28.543C15.5039 28.7305 15.4453 28.8594 15.3281 28.9297C15.2109 29 15.0352 29.0352 14.8008 29.0352C14.5664 29.0352 14.2852 29.0234 13.957 29C13.7227 28.1562 13.5117 27.1719 13.3242 26.0469C13.1602 24.8984 13.0078 23.6797 12.8672 22.3906C12.7266 21.0781 12.5859 19.7305 12.4453 18.3477C12.3281 16.9648 12.2109 15.5938 12.0938 14.2344C11.9766 12.875 11.8477 11.5742 11.707 10.332C11.5664 9.08984 11.4023 7.96484 11.2148 6.95703H10.582ZM32.9062 16.8359C32.6484 17.0234 32.1914 17.3047 31.5352 17.6797C30.9023 18.0312 30.2227 18.418 29.4961 18.8398C28.7695 19.2617 28.0781 19.6719 27.4219 20.0703C26.7656 20.4453 26.3086 20.7266 26.0508 20.9141C25.5352 21.3125 25.1836 21.7695 24.9961 22.2852C24.8086 22.8008 24.7148 23.3633 24.7148 23.9727C24.7148 24.5586 24.7734 25.1797 24.8906 25.8359C25.0078 26.4688 25.0898 27.1133 25.1367 27.7695C25.1367 28.0977 25.0312 28.4023 24.8203 28.6836C24.6094 28.9648 24.3398 29.1055 24.0117 29.1055C23.8711 29.1055 23.7188 29.0703 23.5547 29C23.3906 28.9062 23.3086 28.7773 23.3086 28.6133L22.5 6.07812C22.5 5.9375 22.5469 5.75 22.6406 5.51562C22.7578 5.28125 22.8516 5.15234 22.9219 5.12891C22.9922 5.12891 23.0859 5.14062 23.2031 5.16406C23.3438 5.1875 23.4844 5.23438 23.625 5.30469C23.7656 5.35156 23.8945 5.41016 24.0117 5.48047C24.1523 5.52734 24.2461 5.57422 24.293 5.62109C24.3867 6.55859 24.4453 7.63672 24.4688 8.85547C24.4922 10.0742 24.5156 11.3047 24.5391 12.5469C24.5859 13.7891 24.6445 14.9961 24.7148 16.168C24.8086 17.3164 24.9609 18.2891 25.1719 19.0859C26.1797 18.6641 27.1289 18.2656 28.0195 17.8906C28.9102 17.5156 29.6836 17.082 30.3398 16.5898C30.9961 16.0977 31.5117 15.5 31.8867 14.7969C32.2617 14.0703 32.4375 13.168 32.4141 12.0898C32.4141 11.5039 32.4023 10.9883 32.3789 10.543C32.3555 10.0977 32.3086 9.66406 32.2383 9.24219C32.168 8.79688 32.0625 8.32812 31.9219 7.83594C31.8047 7.32031 31.6523 6.73438 31.4648 6.07812C31.418 5.65625 31.4883 5.38672 31.6758 5.26953C31.8633 5.15234 32.0859 5.09375 32.3438 5.09375C32.6484 5.09375 32.8828 5.16406 33.0469 5.30469C33.2109 5.44531 33.3398 5.63281 33.4336 5.86719C33.5508 6.10156 33.6211 6.35938 33.6445 6.64062C33.668 6.89844 33.6914 7.14453 33.7148 7.37891C33.7617 7.75391 33.8203 8.31641 33.8906 9.06641C33.9609 9.81641 34.0312 10.6719 34.1016 11.6328C34.1953 12.5703 34.2891 13.5664 34.3828 14.6211C34.5 15.6758 34.6055 16.6719 34.6992 17.6094C34.793 18.5469 34.8633 19.3906 34.9102 20.1406C34.9805 20.8906 35.0391 21.4531 35.0859 21.8281C35.1562 22.7188 35.25 23.5977 35.3672 24.4648C35.4844 25.332 35.543 26.2227 35.543 27.1367V27.6992C35.543 27.8867 35.5195 28.0742 35.4727 28.2617C35.4492 28.4258 35.3672 28.5781 35.2266 28.7188C35.1094 28.8359 34.9102 28.9297 34.6289 29C34.207 28.6953 33.9609 28.3555 33.8906 27.9805C33.8203 27.6055 33.7617 27.1953 33.7148 26.75C33.6914 26.4922 33.668 26.1055 33.6445 25.5898C33.6211 25.0508 33.5742 24.4648 33.5039 23.832C33.457 23.1758 33.3984 22.4961 33.3281 21.793C33.2812 21.0664 33.2227 20.3867 33.1523 19.7539C33.1055 19.0977 33.0586 18.5117 33.0117 17.9961C32.9648 17.4805 32.9297 17.0938 32.9062 16.8359ZM39.2695 28.0859C39.2695 26.1875 39.2812 24.3242 39.3047 22.4961C39.3281 20.668 39.3164 18.8516 39.2695 17.0469C39.2227 15.2422 39.1289 13.4375 38.9883 11.6328C38.8477 9.80469 38.6367 7.95312 38.3555 6.07812C38.3555 6.03125 38.3203 5.9375 38.25 5.79688C38.2031 5.65625 38.1562 5.51562 38.1094 5.375C38.0625 5.21094 38.0156 5.07031 37.9688 4.95312C37.9219 4.83594 37.8984 4.75391 37.8984 4.70703C37.8984 4.58984 37.9336 4.44922 38.0039 4.28516C38.0977 4.12109 38.2031 3.96875 38.3203 3.82812C38.4609 3.66406 38.6133 3.53516 38.7773 3.44141C38.9414 3.34766 39.1055 3.3125 39.2695 3.33594C39.5508 3.40625 39.7734 3.58203 39.9375 3.86328C40.125 4.14453 40.2656 4.46094 40.3594 4.8125C40.4531 5.14062 40.5117 5.46875 40.5352 5.79688C40.582 6.125 40.6055 6.35938 40.6055 6.5C41.3086 6.125 42.0938 5.72656 42.9609 5.30469C43.8516 4.85938 44.7539 4.46094 45.668 4.10938C46.6055 3.73438 47.5312 3.42969 48.4453 3.19531C49.3828 2.9375 50.2617 2.80859 51.082 2.80859C51.082 3.01953 51.0352 3.20703 50.9414 3.37109C50.8711 3.53516 50.7188 3.67578 50.4844 3.79297L40.6055 8.75V10.1211C40.6289 10.3789 40.6523 10.8242 40.6758 11.457C40.7227 12.0898 40.7695 12.7695 40.8164 13.4961C40.8633 14.1992 40.8984 14.8789 40.9219 15.5352C40.9688 16.168 41.0039 16.6016 41.0273 16.8359L48.2695 12.793L48.4453 12.582C48.5625 12.4414 48.7148 12.3125 48.9023 12.1953C49.0898 12.0781 49.2773 12.0195 49.4648 12.0195C49.6758 11.9961 49.875 12.1133 50.0625 12.3711C50.0625 12.793 49.8516 13.2031 49.4297 13.6016C49.0078 14 48.4805 14.3984 47.8477 14.7969C47.2148 15.1953 46.5234 15.582 45.7734 15.957C45.0469 16.332 44.3672 16.6953 43.7344 17.0469C43.1016 17.3984 42.5742 17.75 42.1523 18.1016C41.7305 18.4531 41.5195 18.7812 41.5195 19.0859V25.8711C41.8242 25.9883 42.2461 25.9414 42.7852 25.7305C43.3477 25.4961 43.9688 25.1797 44.6484 24.7812C45.3281 24.3828 46.0312 23.9258 46.7578 23.4102C47.4844 22.8711 48.1875 22.3672 48.8672 21.8984C49.5703 21.4297 50.2148 21.0078 50.8008 20.6328C51.4102 20.2578 51.9141 20.0352 52.3125 19.9648C52.5469 19.9648 52.7578 20.0117 52.9453 20.1055C53.1328 20.1992 53.2266 20.3867 53.2266 20.668C53.2266 20.9492 53.0625 21.1719 52.7344 21.3359C51.9141 21.8281 50.9648 22.4492 49.8867 23.1992C48.832 23.9258 47.7539 24.6641 46.6523 25.4141C45.5508 26.1406 44.4609 26.8086 43.3828 27.418C42.3281 28.0039 41.4141 28.3906 40.6406 28.5781C40.3359 28.5781 40.0898 28.5547 39.9023 28.5078C39.7148 28.4609 39.5039 28.3203 39.2695 28.0859ZM71.0859 5.79688C71.0859 5.5625 71.1562 5.39844 71.2969 5.30469C71.4375 5.1875 71.6133 5.10547 71.8242 5.05859C72.0352 5.01172 72.2578 4.98828 72.4922 4.98828C72.7266 4.98828 72.9258 4.97656 73.0898 4.95312V8.29297C74.6367 7.84766 75.9023 7.40234 76.8867 6.95703C77.8711 6.48828 78.75 6.06641 79.5234 5.69141C80.2969 5.29297 81.0586 4.94141 81.8086 4.63672C82.582 4.30859 83.5078 4.02734 84.5859 3.79297C84.75 3.79297 84.8672 3.875 84.9375 4.03906C85.0078 4.20312 85.043 4.35547 85.043 4.49609C85.043 4.75391 84.8906 4.96484 84.5859 5.12891L73.3008 10.543L73.7578 20.457C75.4922 19.4961 76.957 18.6758 78.1523 17.9961C79.3477 17.3164 80.332 16.7539 81.1055 16.3086C81.8789 15.8633 82.4766 15.5234 82.8984 15.2891C83.3438 15.0547 83.6719 14.8906 83.8828 14.7969L84.2695 14.6211C84.3164 14.5977 84.3516 14.5859 84.375 14.5859C84.4219 14.5859 84.457 14.6328 84.4805 14.7266C84.5039 14.7969 84.5156 14.8906 84.5156 15.0078V15.4297C84.5156 15.5469 84.5391 15.6523 84.5859 15.7461C84.4688 15.8867 84.1172 16.1445 83.5312 16.5195C82.9688 16.8945 82.2891 17.3281 81.4922 17.8203C80.6953 18.2891 79.8398 18.793 78.9258 19.332C78.0352 19.8477 77.2031 20.3398 76.4297 20.8086C75.6562 21.2773 75.0117 21.6875 74.4961 22.0391C74.0039 22.3672 73.7578 22.5898 73.7578 22.707V28.0859C73.7578 28.3906 73.6992 28.625 73.582 28.7891C73.4883 28.9531 73.3242 29.0352 73.0898 29.0352C72.832 29.0352 72.5977 28.7422 72.3867 28.1562C72.1992 27.5703 72.0352 26.7969 71.8945 25.8359C71.7773 24.8516 71.6719 23.7266 71.5781 22.4609C71.4844 21.1953 71.4023 19.8828 71.332 18.5234C71.2617 17.1641 71.2031 15.8047 71.1562 14.4453C71.1328 13.0859 71.1094 11.832 71.0859 10.6836C71.0859 9.51172 71.0859 8.50391 71.0859 7.66016V5.79688ZM87.1875 27.6289C87.1406 24.6523 87.082 22.1094 87.0117 20C86.9648 17.8672 86.918 16.0742 86.8711 14.6211C86.8242 13.168 86.7656 12.0195 86.6953 11.1758C86.6484 10.3086 86.6133 9.61719 86.5898 9.10156C86.5664 8.58594 86.543 8.22266 86.5195 8.01172C86.4961 7.77734 86.4844 7.55469 86.4844 7.34375C86.4844 6.94531 86.6016 6.69922 86.8359 6.60547C87.0703 6.48828 87.3633 6.42969 87.7148 6.42969C88.1133 6.42969 88.418 6.51172 88.6289 6.67578C88.8633 6.81641 88.9805 7.20312 88.9805 7.83594L89.6484 26.75C89.6719 26.75 89.7891 26.7266 90 26.6797C90.2109 26.6328 90.457 26.5625 90.7383 26.4688C91.0195 26.375 91.3125 26.2812 91.6172 26.1875C91.9219 26.0703 92.168 25.9648 92.3555 25.8711C92.6367 25.7539 93.0586 25.5664 93.6211 25.3086C94.1836 25.0508 94.8164 24.7578 95.5195 24.4297C96.2227 24.1016 96.9609 23.7617 97.7344 23.4102C98.5312 23.0352 99.2812 22.6953 99.9844 22.3906C100.711 22.0625 101.344 21.7695 101.883 21.5117C102.445 21.2305 102.867 21.0312 103.148 20.9141H103.57C103.711 20.9141 103.852 20.9258 103.992 20.9492C104.133 20.9727 104.25 21.0312 104.344 21.125C104.438 21.2188 104.496 21.3594 104.52 21.5469C104.52 21.7812 104.473 21.9805 104.379 22.1445C104.309 22.3086 104.203 22.4961 104.062 22.707C102.68 22.9648 101.32 23.4336 99.9844 24.1133C98.6719 24.793 97.3594 25.4961 96.0469 26.2227C94.7578 26.9492 93.4453 27.5938 92.1094 28.1562C90.7969 28.7188 89.4492 29 88.0664 29C87.4805 29 87.1875 28.543 87.1875 27.6289ZM107.332 28.0859C107.332 26.1875 107.344 24.3242 107.367 22.4961C107.391 20.668 107.379 18.8516 107.332 17.0469C107.285 15.2422 107.191 13.4375 107.051 11.6328C106.91 9.80469 106.699 7.95312 106.418 6.07812C106.418 6.03125 106.383 5.9375 106.312 5.79688C106.266 5.65625 106.219 5.51562 106.172 5.375C106.125 5.21094 106.078 5.07031 106.031 4.95312C105.984 4.83594 105.961 4.75391 105.961 4.70703C105.961 4.58984 105.996 4.44922 106.066 4.28516C106.16 4.12109 106.266 3.96875 106.383 3.82812C106.523 3.66406 106.676 3.53516 106.84 3.44141C107.004 3.34766 107.168 3.3125 107.332 3.33594C107.613 3.40625 107.836 3.58203 108 3.86328C108.188 4.14453 108.328 4.46094 108.422 4.8125C108.516 5.14062 108.574 5.46875 108.598 5.79688C108.645 6.125 108.668 6.35938 108.668 6.5C109.371 6.125 110.156 5.72656 111.023 5.30469C111.914 4.85938 112.816 4.46094 113.73 4.10938C114.668 3.73438 115.594 3.42969 116.508 3.19531C117.445 2.9375 118.324 2.80859 119.145 2.80859C119.145 3.01953 119.098 3.20703 119.004 3.37109C118.934 3.53516 118.781 3.67578 118.547 3.79297L108.668 8.75V10.1211C108.691 10.3789 108.715 10.8242 108.738 11.457C108.785 12.0898 108.832 12.7695 108.879 13.4961C108.926 14.1992 108.961 14.8789 108.984 15.5352C109.031 16.168 109.066 16.6016 109.09 16.8359L116.332 12.793L116.508 12.582C116.625 12.4414 116.777 12.3125 116.965 12.1953C117.152 12.0781 117.34 12.0195 117.527 12.0195C117.738 11.9961 117.938 12.1133 118.125 12.3711C118.125 12.793 117.914 13.2031 117.492 13.6016C117.07 14 116.543 14.3984 115.91 14.7969C115.277 15.1953 114.586 15.582 113.836 15.957C113.109 16.332 112.43 16.6953 111.797 17.0469C111.164 17.3984 110.637 17.75 110.215 18.1016C109.793 18.4531 109.582 18.7812 109.582 19.0859V25.8711C109.887 25.9883 110.309 25.9414 110.848 25.7305C111.41 25.4961 112.031 25.1797 112.711 24.7812C113.391 24.3828 114.094 23.9258 114.82 23.4102C115.547 22.8711 116.25 22.3672 116.93 21.8984C117.633 21.4297 118.277 21.0078 118.863 20.6328C119.473 20.2578 119.977 20.0352 120.375 19.9648C120.609 19.9648 120.82 20.0117 121.008 20.1055C121.195 20.1992 121.289 20.3867 121.289 20.668C121.289 20.9492 121.125 21.1719 120.797 21.3359C119.977 21.8281 119.027 22.4492 117.949 23.1992C116.895 23.9258 115.816 24.6641 114.715 25.4141C113.613 26.1406 112.523 26.8086 111.445 27.418C110.391 28.0039 109.477 28.3906 108.703 28.5781C108.398 28.5781 108.152 28.5547 107.965 28.5078C107.777 28.4609 107.566 28.3203 107.332 28.0859ZM122.801 28.0859C122.871 27.7578 122.93 27.3359 122.977 26.8203C123.023 26.3047 123.082 25.625 123.152 24.7812C123.246 23.9375 123.34 22.8945 123.434 21.6523C123.551 20.4102 123.703 18.8984 123.891 17.1172C124.078 15.3359 124.289 13.25 124.523 10.8594C124.781 8.44531 125.109 5.64453 125.508 2.45703C125.531 2.22266 125.637 2.08203 125.824 2.03516C126.035 1.98828 126.223 1.96484 126.387 1.96484C126.645 1.96484 126.855 2.05859 127.02 2.24609C127.184 2.43359 127.324 2.64453 127.441 2.87891C127.582 3.11328 127.711 3.35938 127.828 3.61719C127.945 3.875 128.074 4.08594 128.215 4.25C128.449 4.78906 128.684 5.41016 128.918 6.11328C129.176 6.81641 129.445 7.56641 129.727 8.36328C130.008 9.16016 130.289 9.96875 130.57 10.7891C130.852 11.5859 131.133 12.3711 131.414 13.1445C131.695 13.8945 131.953 14.5977 132.188 15.2539C132.445 15.8867 132.68 16.4141 132.891 16.8359C133.148 16.8125 133.512 16.7188 133.98 16.5547C134.449 16.3672 134.953 16.1914 135.492 16.0273C136.031 15.8633 136.559 15.7344 137.074 15.6406C137.59 15.5469 138.023 15.5469 138.375 15.6406C138.727 15.7109 138.949 15.9102 139.043 16.2383C139.16 16.5664 139.078 17.082 138.797 17.7852C138.633 17.7852 138.48 17.7617 138.34 17.7148C138.199 17.6445 138.059 17.5859 137.918 17.5391C137.777 17.4688 137.625 17.4102 137.461 17.3633C137.32 17.293 137.156 17.2578 136.969 17.2578C136.852 17.2578 136.582 17.3281 136.16 17.4688C135.762 17.5859 135.328 17.7266 134.859 17.8906C134.391 18.0312 133.98 18.1836 133.629 18.3477C133.277 18.4883 133.102 18.5938 133.102 18.6641L135.527 28.1914L134.613 29.5273C134.215 28.8477 133.875 28.0742 133.594 27.207C133.336 26.3164 133.09 25.4375 132.855 24.5703C132.621 23.6797 132.375 22.8594 132.117 22.1094C131.883 21.3359 131.578 20.6914 131.203 20.1758C130.711 20.4102 130.125 20.6094 129.445 20.7734C128.766 20.9375 128.109 21.1484 127.477 21.4062C126.844 21.6406 126.293 21.9688 125.824 22.3906C125.379 22.7891 125.109 23.3398 125.016 24.043C124.969 24.3242 124.922 24.6992 124.875 25.168C124.852 25.6367 124.816 26.082 124.77 26.5039C124.699 27.0195 124.641 27.5469 124.594 28.0859H122.801ZM126.844 7.37891L126.773 7.97656C126.75 8.375 126.715 8.84375 126.668 9.38281C126.621 9.89844 126.562 10.4375 126.492 11C126.445 11.5391 126.41 11.9961 126.387 12.3711C126.27 13.6836 126.141 14.9844 126 16.2734C125.883 17.5391 125.824 18.8398 125.824 20.1758C126.27 20.1758 126.738 20.1172 127.23 20C127.746 19.8828 128.238 19.7305 128.707 19.543C129.176 19.332 129.598 19.0859 129.973 18.8047C130.371 18.5 130.676 18.1602 130.887 17.7852C130.699 16.9648 130.488 16.1211 130.254 15.2539C130.043 14.3633 129.809 13.4727 129.551 12.582C129.293 11.668 129.012 10.7773 128.707 9.91016C128.402 9.04297 128.074 8.19922 127.723 7.37891C127.699 7.35547 127.617 7.30859 127.477 7.23828C127.336 7.14453 127.125 7.19141 126.844 7.37891ZM156.41 27.3477C156.457 27.1133 156.75 26.8906 157.289 26.6797C157.828 26.4688 158.496 26.2461 159.293 26.0117C160.09 25.7773 160.969 25.5195 161.93 25.2383C162.891 24.957 163.816 24.6406 164.707 24.2891C165.598 23.9375 166.406 23.5391 167.133 23.0938C167.883 22.6484 168.434 22.1328 168.785 21.5469C168.785 21.1953 168.551 20.9258 168.082 20.7383C167.637 20.5508 167.027 20.3984 166.254 20.2812C165.504 20.1406 164.637 20.0352 163.652 19.9648C162.691 19.8711 161.695 19.7539 160.664 19.6133C159.656 19.4492 158.66 19.2617 157.676 19.0508C156.715 18.8164 155.848 18.5 155.074 18.1016C154.324 17.6797 153.715 17.1523 153.246 16.5195C152.801 15.8867 152.578 15.1133 152.578 14.1992C152.578 13.2852 152.777 12.3828 153.176 11.4922C153.574 10.5781 154.102 9.69922 154.758 8.85547C155.438 8.01172 156.199 7.22656 157.043 6.5C157.91 5.77344 158.812 5.14062 159.75 4.60156C160.688 4.0625 161.613 3.64062 162.527 3.33594C163.465 3.03125 164.332 2.87891 165.129 2.87891C165.34 2.87891 165.562 2.87891 165.797 2.87891C166.031 2.85547 166.23 2.86719 166.395 2.91406C166.582 2.9375 166.734 3.01953 166.852 3.16016C166.969 3.30078 167.027 3.51172 167.027 3.79297C167.027 4.47266 166.805 4.96484 166.359 5.26953C165.914 5.55078 165.375 5.69141 164.742 5.69141L163.371 4.70703C162.832 4.70703 162.234 4.85938 161.578 5.16406C160.945 5.46875 160.289 5.87891 159.609 6.39453C158.953 6.88672 158.309 7.46094 157.676 8.11719C157.043 8.77344 156.48 9.45312 155.988 10.1562C155.52 10.8594 155.133 11.5625 154.828 12.2656C154.547 12.9688 154.406 13.6016 154.406 14.1641C154.406 14.9844 154.629 15.6523 155.074 16.168C155.543 16.6602 156.152 17.0586 156.902 17.3633C157.676 17.6445 158.555 17.8555 159.539 17.9961C160.523 18.1367 161.52 18.2539 162.527 18.3477C163.535 18.4414 164.531 18.5352 165.516 18.6289C166.5 18.6992 167.367 18.8398 168.117 19.0508C168.891 19.2617 169.5 19.543 169.945 19.8945C170.414 20.2461 170.648 20.7266 170.648 21.3359C170.906 21.7109 170.848 22.1445 170.473 22.6367C170.121 23.1055 169.559 23.5859 168.785 24.0781C168.035 24.5469 167.133 25.0273 166.078 25.5195C165.047 25.9883 163.98 26.4219 162.879 26.8203C161.777 27.1953 160.711 27.5234 159.68 27.8047C158.648 28.0625 157.77 28.2266 157.043 28.2969C156.832 28.2969 156.645 28.2266 156.48 28.0859C156.34 27.9453 156.316 27.6992 156.41 27.3477ZM182.215 6.95703C181.465 6.95703 180.703 7.02734 179.93 7.16797C179.18 7.30859 178.43 7.47266 177.68 7.66016C176.93 7.82422 176.18 7.97656 175.43 8.11719C174.68 8.25781 173.918 8.32812 173.145 8.32812C172.91 8.32812 172.664 8.30469 172.406 8.25781C172.172 8.1875 172.055 7.97656 172.055 7.625C172.055 7.39062 172.148 7.15625 172.336 6.92188C172.547 6.66406 172.77 6.52344 173.004 6.5L182.426 5.12891C182.449 5.03516 182.484 4.89453 182.531 4.70703C182.578 4.49609 182.637 4.29688 182.707 4.10938C182.801 3.89844 182.918 3.72266 183.059 3.58203C183.199 3.41797 183.363 3.33594 183.551 3.33594C183.832 3.33594 184.055 3.40625 184.219 3.54688C184.383 3.6875 184.523 3.85156 184.641 4.03906C184.758 4.20312 184.863 4.35547 184.957 4.49609C185.051 4.63672 185.168 4.70703 185.309 4.70703H185.59C185.824 4.68359 186.199 4.64844 186.715 4.60156C187.23 4.53125 187.816 4.46094 188.473 4.39062C189.152 4.32031 189.867 4.25 190.617 4.17969C191.367 4.08594 192.082 4.01562 192.762 3.96875C193.441 3.89844 194.039 3.83984 194.555 3.79297C195.07 3.72266 195.445 3.66406 195.68 3.61719C195.75 3.61719 195.914 3.61719 196.172 3.61719C196.453 3.59375 196.652 3.58203 196.77 3.58203C196.77 4.02734 196.523 4.40234 196.031 4.70703C195.562 4.98828 194.953 5.23438 194.203 5.44531C193.477 5.63281 192.656 5.78516 191.742 5.90234C190.852 5.99609 189.973 6.07812 189.105 6.14844C188.262 6.21875 187.477 6.27734 186.75 6.32422C186.047 6.37109 185.508 6.42969 185.133 6.5C185.039 8.16406 185.074 9.89844 185.238 11.7031C185.426 13.5078 185.648 15.3242 185.906 17.1523C186.188 18.9805 186.445 20.7969 186.68 22.6016C186.914 24.4062 187.031 26.1289 187.031 27.7695C187.125 28.0977 187.16 28.3555 187.137 28.543C187.137 28.7305 187.078 28.8594 186.961 28.9297C186.844 29 186.668 29.0352 186.434 29.0352C186.199 29.0352 185.918 29.0234 185.59 29C185.355 28.1562 185.145 27.1719 184.957 26.0469C184.793 24.8984 184.641 23.6797 184.5 22.3906C184.359 21.0781 184.219 19.7305 184.078 18.3477C183.961 16.9648 183.844 15.5938 183.727 14.2344C183.609 12.875 183.48 11.5742 183.34 10.332C183.199 9.08984 183.035 7.96484 182.848 6.95703H182.215ZM193.605 21.4766C193.887 17.3984 194.473 14.082 195.363 11.5273C196.254 8.94922 197.285 7.10938 198.457 6.00781C199.652 4.90625 200.883 4.54297 202.148 4.91797C203.438 5.26953 204.598 6.33594 205.629 8.11719C205.98 9.28906 206.203 10.6016 206.297 12.0547C206.414 13.5078 206.391 14.9844 206.227 16.4844C206.086 17.9609 205.816 19.4141 205.418 20.8438C205.043 22.2734 204.516 23.5625 203.836 24.7109C203.156 25.8594 202.348 26.832 201.41 27.6289C200.473 28.4023 199.395 28.8711 198.176 29.0352C197.309 29.0352 196.582 28.7656 195.996 28.2266C195.41 27.6875 194.941 27.0312 194.59 26.2578C194.238 25.4609 193.98 24.6406 193.816 23.7969C193.676 22.9297 193.605 22.1562 193.605 21.4766ZM195.469 21.2656C195.469 21.8516 195.492 22.4609 195.539 23.0938C195.609 23.7266 195.75 24.3125 195.961 24.8516C196.172 25.3672 196.488 25.8008 196.91 26.1523C197.355 26.4805 197.941 26.6445 198.668 26.6445C199.488 26.6445 200.238 26.2695 200.918 25.5195C201.598 24.7695 202.184 23.7969 202.676 22.6016C203.168 21.4062 203.555 20.082 203.836 18.6289C204.141 17.1758 204.316 15.7578 204.363 14.375C204.434 12.9688 204.363 11.6797 204.152 10.5078C203.965 9.33594 203.625 8.45703 203.133 7.87109C202.641 7.26172 201.984 7.01562 201.164 7.13281C200.367 7.25 199.406 7.89453 198.281 9.06641C197.953 10.0273 197.625 11.0234 197.297 12.0547C196.969 13.0625 196.676 14.0938 196.418 15.1484C196.16 16.1797 195.938 17.2109 195.75 18.2422C195.562 19.2734 195.469 20.2812 195.469 21.2656ZM208.266 0.453125C208.289 0.453125 208.371 0.464844 208.512 0.488281C208.652 0.511719 208.805 0.535156 208.969 0.558594C209.133 0.558594 209.285 0.570313 209.426 0.59375C209.59 0.617187 209.684 0.628906 209.707 0.628906C209.824 0.628906 210 0.652344 210.234 0.699219C210.469 0.722656 210.586 0.851563 210.586 1.08594V4.17969C210.984 4.08594 211.441 3.875 211.957 3.54688C212.473 3.19531 213.082 2.84375 213.785 2.49219C214.488 2.14062 215.273 1.84766 216.141 1.61328C217.008 1.37891 218.004 1.32031 219.129 1.4375C220.863 1.78906 222.117 2.21094 222.891 2.70312C223.664 3.17188 224.074 3.69922 224.121 4.28516C224.168 4.84766 223.922 5.45703 223.383 6.11328C222.867 6.76953 222.176 7.44922 221.309 8.15234C220.441 8.83203 219.469 9.51172 218.391 10.1914C217.336 10.8711 216.293 11.5391 215.262 12.1953C214.254 12.8281 213.328 13.4258 212.484 13.9883C211.641 14.5508 211.008 15.0547 210.586 15.5C210.961 15.6641 211.5 15.9336 212.203 16.3086C212.93 16.6602 213.715 17.0586 214.559 17.5039C215.426 17.9258 216.316 18.3828 217.23 18.875C218.168 19.3672 219.047 19.8242 219.867 20.2461C220.688 20.6445 221.426 21.0078 222.082 21.3359C222.738 21.6406 223.207 21.8398 223.488 21.9336C223.723 22.0508 223.945 22.1562 224.156 22.25C224.32 22.3672 224.473 22.4727 224.613 22.5664C224.777 22.6602 224.859 22.7539 224.859 22.8477C224.859 22.9414 224.824 23.0703 224.754 23.2344C224.707 23.3984 224.625 23.5508 224.508 23.6914C224.391 23.832 224.262 23.9609 224.121 24.0781C224.004 24.1719 223.887 24.2188 223.77 24.2188C223.723 24.2188 223.664 24.2188 223.594 24.2188C223.547 24.1953 223.512 24.1836 223.488 24.1836C223.441 24.1602 223.277 24.0898 222.996 23.9727C222.738 23.832 222.457 23.6797 222.152 23.5156C221.871 23.3516 221.59 23.2109 221.309 23.0938C221.051 22.9531 220.887 22.8711 220.816 22.8477C220.559 22.7539 220.137 22.5781 219.551 22.3203C218.988 22.0391 218.344 21.7344 217.617 21.4062C216.914 21.0547 216.164 20.6797 215.367 20.2812C214.57 19.8828 213.809 19.5078 213.082 19.1562C212.379 18.8047 211.734 18.5 211.148 18.2422C210.586 17.9844 210.176 17.832 209.918 17.7852V28.543H208.336L208.266 0.453125ZM210.586 6.5C210.539 6.92188 210.492 7.41406 210.445 7.97656C210.398 8.53906 210.34 9.125 210.27 9.73438C210.223 10.3438 210.176 10.9531 210.129 11.5625C210.105 12.1719 210.094 12.7344 210.094 13.25C210.188 13.1328 210.516 12.9336 211.078 12.6523C211.641 12.3711 212.32 12.0195 213.117 11.5977C213.914 11.1758 214.77 10.707 215.684 10.1914C216.621 9.67578 217.5 9.14844 218.32 8.60938C219.141 8.04688 219.855 7.49609 220.465 6.95703C221.098 6.41797 221.496 5.92578 221.66 5.48047C221.848 5.01172 221.754 4.58984 221.379 4.21484C221.027 3.83984 220.277 3.54688 219.129 3.33594C218.496 3.28906 217.77 3.32422 216.949 3.44141C216.152 3.55859 215.344 3.75781 214.523 4.03906C213.727 4.32031 212.977 4.67188 212.273 5.09375C211.57 5.49219 211.008 5.96094 210.586 6.5ZM227.531 28.0859C227.531 26.1875 227.543 24.3242 227.566 22.4961C227.59 20.668 227.578 18.8516 227.531 17.0469C227.484 15.2422 227.391 13.4375 227.25 11.6328C227.109 9.80469 226.898 7.95312 226.617 6.07812C226.617 6.03125 226.582 5.9375 226.512 5.79688C226.465 5.65625 226.418 5.51562 226.371 5.375C226.324 5.21094 226.277 5.07031 226.23 4.95312C226.184 4.83594 226.16 4.75391 226.16 4.70703C226.16 4.58984 226.195 4.44922 226.266 4.28516C226.359 4.12109 226.465 3.96875 226.582 3.82812C226.723 3.66406 226.875 3.53516 227.039 3.44141C227.203 3.34766 227.367 3.3125 227.531 3.33594C227.812 3.40625 228.035 3.58203 228.199 3.86328C228.387 4.14453 228.527 4.46094 228.621 4.8125C228.715 5.14062 228.773 5.46875 228.797 5.79688C228.844 6.125 228.867 6.35938 228.867 6.5C229.57 6.125 230.355 5.72656 231.223 5.30469C232.113 4.85938 233.016 4.46094 233.93 4.10938C234.867 3.73438 235.793 3.42969 236.707 3.19531C237.645 2.9375 238.523 2.80859 239.344 2.80859C239.344 3.01953 239.297 3.20703 239.203 3.37109C239.133 3.53516 238.98 3.67578 238.746 3.79297L228.867 8.75V10.1211C228.891 10.3789 228.914 10.8242 228.938 11.457C228.984 12.0898 229.031 12.7695 229.078 13.4961C229.125 14.1992 229.16 14.8789 229.184 15.5352C229.23 16.168 229.266 16.6016 229.289 16.8359L236.531 12.793L236.707 12.582C236.824 12.4414 236.977 12.3125 237.164 12.1953C237.352 12.0781 237.539 12.0195 237.727 12.0195C237.938 11.9961 238.137 12.1133 238.324 12.3711C238.324 12.793 238.113 13.2031 237.691 13.6016C237.27 14 236.742 14.3984 236.109 14.7969C235.477 15.1953 234.785 15.582 234.035 15.957C233.309 16.332 232.629 16.6953 231.996 17.0469C231.363 17.3984 230.836 17.75 230.414 18.1016C229.992 18.4531 229.781 18.7812 229.781 19.0859V25.8711C230.086 25.9883 230.508 25.9414 231.047 25.7305C231.609 25.4961 232.23 25.1797 232.91 24.7812C233.59 24.3828 234.293 23.9258 235.02 23.4102C235.746 22.8711 236.449 22.3672 237.129 21.8984C237.832 21.4297 238.477 21.0078 239.062 20.6328C239.672 20.2578 240.176 20.0352 240.574 19.9648C240.809 19.9648 241.02 20.0117 241.207 20.1055C241.395 20.1992 241.488 20.3867 241.488 20.668C241.488 20.9492 241.324 21.1719 240.996 21.3359C240.176 21.8281 239.227 22.4492 238.148 23.1992C237.094 23.9258 236.016 24.6641 234.914 25.4141C233.812 26.1406 232.723 26.8086 231.645 27.418C230.59 28.0039 229.676 28.3906 228.902 28.5781C228.598 28.5781 228.352 28.5547 228.164 28.5078C227.977 28.4609 227.766 28.3203 227.531 28.0859Z" fill="black"/>
</svg>
